 LOG  LOGGER :=> do something with  file:///data/user/0/com.octoria.development/cache/OCTORIA5939030494235021722.png
 LOG  LOGGER :=> get base64 of url:  file:///data/user/0/com.octoria.development/cache/OCTORIA5939030494235021722.png
 LOG  LOGGER :=> dwnVideo /data/user/0/com.octoria.development/files/video_cache/4.mp4
 LOG  LOGGER :=> renderedAsset file:///data/user/0/com.octoria.development/cache/OCTORIA5939030494235021722.png
 LOG  LOGGER :=> resolution 1024
 LOG  LOGGER :=> ext mp4
 LOG  Loading ffmpeg-kit-react-native.
 LOG  LOGGER :=> renderedAsset file:///data/user/0/com.octoria.development/cache/OCTORIA5939030494235021722.png
 LOG  LOGGER :=> Screen is blurred
 LOG  LOGGER :=> url to base64 resolved
 LOG  Loaded ffmpeg-kit-react-native-android-full-gpl-x86-6.0.2.
 LOG  LOGGER :=> Input #0, mov,mp4,m4a,3gp,3g2,mj2, from '/data/user/0/com.octoria.development/files/video_cache/4.mp4':
 LOG  LOGGER :=>   Metadata:
 LOG  LOGGER :=>     major_brand     :
 LOG  LOGGER :=> isom
 LOG  LOGGER :=>
 LOG  LOGGER :=>     minor_version   :
 LOG  LOGGER :=> 512
 LOG  LOGGER :=>
 LOG  LOGGER :=>     compatible_brands:
 LOG  LOGGER :=> isomiso2avc1mp41
 LOG  LOGGER :=>
 LOG  LOGGER :=>     encoder         :
 LOG  LOGGER :=> Lavf58.24.100
 LOG  LOGGER :=>
 LOG  LOGGER :=>   Duration:
 LOG  LOGGER :=> 00:00:10.08
 LOG  LOGGER :=> , start:
 LOG  LOGGER :=> 0.000000
 LOG  LOGGER :=> , bitrate:
 LOG  LOGGER :=> 313 kb/s
 LOG  LOGGER :=>
 LOG  LOGGER :=>   Stream #0:0
 LOG  LOGGER :=> [0x1]
 LOG  LOGGER :=> (und)
 LOG  LOGGER :=> : Video: h264 (avc1 / 0x31637661), yuv420p(progressive), 1080x1080, 304 kb/s
 LOG  LOGGER :=> ,
 LOG  LOGGER :=> 25 fps,
 LOG  LOGGER :=> 25 tbr,
 LOG  LOGGER :=> 12800 tbn
 LOG  LOGGER :=>  (default)
 LOG  LOGGER :=>
 LOG  LOGGER :=>     Metadata:
 LOG  LOGGER :=>       handler_name    :
 LOG  LOGGER :=> VideoHandler
 LOG  LOGGER :=>
 LOG  LOGGER :=>       vendor_id       :
 LOG  LOGGER :=> [0][0][0][0]
 LOG  LOGGER :=>
 LOG  LOGGER :=>   Stream #0:1
 LOG  LOGGER :=> [0x2]
 LOG  LOGGER :=> (eng)
 LOG  LOGGER :=> : Audio: aac (mp4a / 0x6134706D), 48000 Hz, stereo, fltp, 2 kb/s
 LOG  LOGGER :=>  (default)
 LOG  LOGGER :=>
 LOG  LOGGER :=>     Metadata:
 LOG  LOGGER :=>       handler_name    :
 LOG  LOGGER :=> #Mainconcept MP4 Sound Media Handler
 LOG  LOGGER :=>
 LOG  LOGGER :=>       vendor_id       :
 LOG  LOGGER :=> [0][0][0][0]
 LOG  LOGGER :=>
 LOG  LOGGER :=> Input #1, png_pipe, from 'file:///data/user/0/com.octoria.development/cache/OCTORIA5939030494235021722.png':
 LOG  LOGGER :=>   Duration:
 LOG  LOGGER :=> N/A
 LOG  LOGGER :=> , bitrate:
 LOG  LOGGER :=> N/A
 LOG  LOGGER :=>
 LOG  LOGGER :=>   Stream #1:0
 LOG  LOGGER :=> : Video: png, rgba(pc), 1024x1024
 LOG  LOGGER :=> ,
 LOG  LOGGER :=> 25 fps,
 LOG  LOGGER :=> 25 tbr,
 LOG  LOGGER :=> 25 tbn
 LOG  LOGGER :=>
 LOG  LOGGER :=> Multiple -c, -codec, -acodec, -vcodec, -scodec or -dcodec options specified for stream 0, only the last option '-c:a aac' will be used.
 LOG  LOGGER :=> Multiple -c, -codec, -acodec, -vcodec, -scodec or -dcodec options specified for stream 1, only the last option '-c:a aac' will be used.
 LOG  LOGGER :=> Stream mapping:
 LOG  LOGGER :=>   Stream #0:0 (h264) -> scale:default
 LOG  LOGGER :=>  (graph 0)
 LOG  LOGGER :=>
 LOG  LOGGER :=>   Stream #1:0 (png) -> overlay
 LOG  LOGGER :=>  (graph 0)
 LOG  LOGGER :=>
 LOG  LOGGER :=>   Stream #0:1 -> #0:0
 LOG  LOGGER :=>  (aac (native) -> aac (native))
 LOG  LOGGER :=>
 LOG  LOGGER :=>   Stream #0:1 -> #0:1
 LOG  LOGGER :=>  (aac (native) -> aac (native))
 LOG  LOGGER :=>
 LOG  LOGGER :=>   overlay:default
 LOG  LOGGER :=>  (graph 0)
 LOG  LOGGER :=>  -> Stream #0:2 (h264_mediacodec)
 LOG  LOGGER :=> Press [q] to stop, [?] for help
 LOG  LOGGER :=> [h264_mediacodec @ 0xa4ee5f00] Use 1 as the default MediaFormat i-frame-interval, please set gop_size properly (>= fps)
 LOG  LOGGER :=> Output #0, mp4, to '/data/user/0/com.octoria.development/files/OCTORIA.mp4':
 LOG  LOGGER :=>   Metadata:
 LOG  LOGGER :=>     major_brand     :
 LOG  LOGGER :=> isom
 LOG  LOGGER :=>
 LOG  LOGGER :=>     minor_version   :
 LOG  LOGGER :=> 512
 LOG  LOGGER :=>
 LOG  LOGGER :=>     compatible_brands:
 LOG  LOGGER :=> isomiso2avc1mp41
 LOG  LOGGER :=>
 LOG  LOGGER :=>     encoder         :
 LOG  LOGGER :=> Lavf60.3.100
 LOG  LOGGER :=>
 LOG  LOGGER :=>   Stream #0:0
 LOG  LOGGER :=> (eng)
 LOG  LOGGER :=> : Audio: aac (mp4a / 0x6134706D), 48000 Hz, stereo, fltp, 128 kb/s
 LOG  LOGGER :=>  (default)
 LOG  LOGGER :=>
 LOG  LOGGER :=>     Metadata:
 LOG  LOGGER :=>       handler_name    :
 LOG  LOGGER :=> #Mainconcept MP4 Sound Media Handler
 LOG  LOGGER :=>
 LOG  LOGGER :=>       vendor_id       :
 LOG  LOGGER :=> [0][0][0][0]
 LOG  LOGGER :=>
 LOG  LOGGER :=>       encoder         :
 LOG  LOGGER :=> Lavc60.3.100 aac
 LOG  LOGGER :=>
 LOG  LOGGER :=>   Stream #0:1
 LOG  LOGGER :=> (eng)
 LOG  LOGGER :=> : Audio: aac (mp4a / 0x6134706D), 48000 Hz, stereo, fltp, 128 kb/s
 LOG  LOGGER :=>  (default)
 LOG  LOGGER :=>
 LOG  LOGGER :=>     Metadata:
 LOG  LOGGER :=>       handler_name    :
 LOG  LOGGER :=> #Mainconcept MP4 Sound Media Handler
 LOG  LOGGER :=>
 LOG  LOGGER :=>       vendor_id       :
 LOG  LOGGER :=> [0][0][0][0]
 LOG  LOGGER :=>
 LOG  LOGGER :=>       encoder         :
 LOG  LOGGER :=> Lavc60.3.100 aac
 LOG  LOGGER :=>
 LOG  LOGGER :=>   Stream #0:2
 LOG  LOGGER :=> : Video: h264 (avc1 / 0x31637661), yuv420p(tv, progressive), 1024x1024, q=2-31, 200 kb/s
 LOG  LOGGER :=> ,
 LOG  LOGGER :=> 25 fps,
 LOG  LOGGER :=> 12800 tbn
 LOG  LOGGER :=>
 LOG  LOGGER :=>     Metadata:
 LOG  LOGGER :=>       encoder         :
 LOG  LOGGER :=> Lavc60.3.100 h264_mediacodec
 LOG  LOGGER :=>
 LOG  LOGGER :=> frame=    0 fps=0.0 q=0.0 size=       0kB time=00:00:00.10 bitrate=   3.6kbits/s speed=0.574x
 LOG  LOGGER :=> frame=    0 fps=0.0 q=0.0 size=       0kB time=00:00:00.12 bitrate=   3.0kbits/s speed=0.151x
 LOG  LOGGER :=> frame=    8 fps=5.7 q=-0.0 size=       0kB time=00:00:00.44 bitrate=   0.9kbits/s speed=0.32x
 LOG  LOGGER :=> frame=   12 fps=6.2 q=-0.0 size=       0kB time=00:00:00.59 bitrate=   0.6kbits/s speed=0.31x
 LOG  LOGGER :=> frame=   19 fps=7.7 q=-0.0 size=       0kB time=00:00:00.89 bitrate=   0.4kbits/s speed=0.365x
 LOG  LOGGER :=> frame=   26 fps=8.8 q=-0.0 size=       0kB time=00:00:01.15 bitrate=   0.3kbits/s speed=0.388x
 LOG  LOGGER :=> frame=   31 fps=8.7 q=-0.0 size=       0kB time=00:00:01.36 bitrate=   0.3kbits/s speed=0.385x
 LOG  LOGGER :=> frame=   38 fps=9.3 q=-0.0 size=       0kB time=00:00:01.64 bitrate=   0.2kbits/s speed=0.403x
 LOG  LOGGER :=> frame=   47 fps= 10 q=-0.0 size=       0kB time=00:00:02.00 bitrate=   0.2kbits/s speed=0.435x
 LOG  LOGGER :=> frame=   56 fps= 11 q=-0.0 size=       0kB time=00:00:02.36 bitrate=   0.2kbits/s speed=0.46x
 LOG  LOGGER :=> frame=   63 fps= 11 q=-0.0 size=       0kB time=00:00:02.64 bitrate=   0.1kbits/s speed=0.461x
 LOG  LOGGER :=> frame=   71 fps= 11 q=-0.0 size=       0kB time=00:00:02.96 bitrate=   0.1kbits/s speed=0.47x
 LOG  LOGGER :=> frame=   76 fps= 11 q=-0.0 size=       0kB time=00:00:03.20 bitrate=   0.1kbits/s speed=0.469x
 LOG  LOGGER :=> frame=   86 fps= 12 q=-0.0 size=       0kB time=00:00:03.60 bitrate=   0.1kbits/s speed=0.491x
 LOG  LOGGER :=> frame=   92 fps= 12 q=-0.0 size=       0kB time=00:00:03.81 bitrate=   0.1kbits/s speed=0.486x
 LOG  LOGGER :=> frame=  103 fps= 12 q=-0.0 size=       0kB time=00:00:04.24 bitrate=   0.1kbits/s speed=0.506x
 LOG  LOGGER :=> frame=  111 fps= 12 q=-0.0 size=       0kB time=00:00:04.56 bitrate=   0.1kbits/s speed=0.511x
 LOG  LOGGER :=> frame=  120 fps= 13 q=-0.0 size=       0kB time=00:00:04.92 bitrate=   0.1kbits/s speed=0.522x
 LOG  LOGGER :=> frame=  128 fps= 13 q=-0.0 size=       0kB time=00:00:05.24 bitrate=   0.1kbits/s speed=0.525x
 LOG  LOGGER :=> frame=  138 fps= 13 q=-0.0 size=       0kB time=00:00:05.65 bitrate=   0.1kbits/s speed=0.537x
 LOG  LOGGER :=> frame=  147 fps= 13 q=-0.0 size=       0kB time=00:00:06.01 bitrate=   0.1kbits/s speed=0.541x
 LOG  LOGGER :=> frame=  154 fps= 13 q=-0.0 size=       0kB time=00:00:06.35 bitrate=   0.1kbits/s speed=0.545x
 LOG  LOGGER :=> frame=  162 fps= 13 q=-0.0 size=       0kB time=00:00:06.65 bitrate=   0.1kbits/s speed=0.546x
 LOG  LOGGER :=> frame=  170 fps= 13 q=-0.0 size=       0kB time=00:00:06.97 bitrate=   0.1kbits/s speed=0.549x
 LOG  LOGGER :=> frame=  177 fps= 13 q=-0.0 size=       0kB time=00:00:07.21 bitrate=   0.1kbits/s speed=0.546x
 LOG  LOGGER :=> frame=  185 fps= 13 q=-0.0 size=       0kB time=00:00:07.57 bitrate=   0.1kbits/s speed=0.551x
 LOG  LOGGER :=> frame=  196 fps= 14 q=-0.0 size=       0kB time=00:00:08.00 bitrate=   0.0kbits/s speed=0.559x
 LOG  LOGGER :=> frame=  205 fps= 14 q=-0.0 size=       0kB time=00:00:08.32 bitrate=   0.0kbits/s speed=0.561x
 LOG  LOGGER :=> frame=  213 fps= 14 q=-0.0 size=       0kB time=00:00:08.64 bitrate=   0.0kbits/s speed=0.562x
 LOG  LOGGER :=> frame=  225 fps= 14 q=-0.0 size=     256kB time=00:00:09.13 bitrate= 229.7kbits/s speed=0.574x
 LOG  LOGGER :=> frame=  237 fps= 14 q=-0.0 size=     256kB time=00:00:09.60 bitrate= 218.5kbits/s speed=0.585x
 LOG  LOGGER :=> frame=  248 fps= 15 q=-0.0 size=     256kB time=00:00:09.94 bitrate= 211.0kbits/s speed=0.588x
 LOG  LOGGER :=> frame=  252 fps= 15 q=-0.0 Lsize=     314kB time=00:00:10.04 bitrate= 256.1kbits/s speed=0.582x
 LOG  LOGGER :=> video:297kB audio:6kB subtitle:0kB other streams:0kB global headers:0kB muxing overhead:
 LOG  LOGGER :=> 3.720857%
 LOG  LOGGER :=>
 LOG  LOGGER :=> [aac @ 0xa4ed6a80] Qavg: 65536.000
 LOG  LOGGER :=> [aac @ 0xa4ed7c00] Qavg: 65536.000
 LOG  LOGGER :=> Logs: Input #0, mov,mp4,m4a,3gp,3g2,mj2, from '/data/user/0/com.octoria.development/files/video_cache/4.mp4':
  Metadata:
    major_brand     : isom
    minor_version   : 512
    compatible_brands: isomiso2avc1mp41
    encoder         : Lavf58.24.100
  Duration: 00:00:10.08, start: 0.000000, bitrate: 313 kb/s
  Stream #0:0[0x1](und): Video: h264 (avc1 / 0x31637661), yuv420p(progressive), 1080x1080, 304 kb/s, 25 fps, 25 tbr, 12800 tbn (default)
    Metadata:
      handler_name    : VideoHandler
      vendor_id       : [0][0][0][0]
  Stream #0:1[0x2](eng): Audio: aac (mp4a / 0x6134706D), 48000 Hz, stereo, fltp, 2 kb/s (default)
    Metadata:
      handler_name    : #Mainconcept MP4 Sound Media Handler
      vendor_id       : [0][0][0][0]
Input #1, png_pipe, from 'file:///data/user/0/com.octoria.development/cache/OCTORIA5939030494235021722.png':
  Duration: N/A, bitrate: N/A
  Stream #1:0: Video: png, rgba(pc), 1024x1024, 25 fps, 25 tbr, 25 tbn
Multiple -c, -codec, -acodec, -vcodec, -scodec or -dcodec options specified for stream 0, only the last option '-c:a aac' will be used.
Multiple -c, -codec, -acodec, -vcodec, -scodec or -dcodec options specified for stream 1, only the last option '-c:a aac' will be used.
Stream mapping:
  Stream #0:0 (h264) -> scale:default (graph 0)
  Stream #1:0 (png) -> overlay (graph 0)
  Stream #0:1 -> #0:0 (aac (native) -> aac (native))
  Stream #0:1 -> #0:1 (aac (native) -> aac (native))
  overlay:default (graph 0) -> Stream #0:2 (h264_mediacodec)
Press [q] to stop, [?] for help
[h264_mediacodec @ 0xa4ee5f00] Use 1 as the default MediaFormat i-frame-interval, please set gop_size properly (>= fps)
Output #0, mp4, to '/data/user/0/com.octoria.development/files/OCTORIA.mp4':
  Metadata:
    major_brand     : isom
    minor_version   : 512
    compatible_brands: isomiso2avc1mp41
    encoder         : Lavf60.3.100
  Stream #0:0(eng): Audio: aac (mp4a / 0x6134706D), 48000 Hz, stereo, fltp, 128 kb/s (default)
    Metadata:
      handler_name    : #Mainconcept MP4 Sound Media Handler
      vendor_id       : [0][0][0][0]
      encoder         : Lavc60.3.100 aac
  Stream #0:1(eng): Audio: aac (mp4a / 0x6134706D), 48000 Hz, stereo, fltp, 128 kb/s (default)
    Metadata:
      handler_name    : #Mainconcept MP4 Sound Media Handler
      vendor_id       : [0][0][0][0]
      encoder         : Lavc60.3.100 aac
  Stream #0:2: Video: h264 (avc1 / 0x31637661), yuv420p(tv, progressive), 1024x1024, q=2-31, 200 kb/s, 25 fps, 12800 tbn
    Metadata:
      encoder         : Lavc60.3.100 h264_mediacodec
frame=  252 fps= 15 q=-0.0 Lsize=     314kB time=00:00:10.04 bitrate= 256.1kbits/s speed=0.582x
video:297kB audio:6kB subtitle:0kB other streams:0kB global headers:0kB muxing overhead: 3.720857%
[aac @ 0xa4ed6a80] Qavg: 65536.000
[aac @ 0xa4ed7c00] Qavg: 65536.000

/////////////////////////////////////////////////////////////////////////////////////////////////////////////////////////////////////////
 LOGGER :=> do something with  file:///data/user/0/com.octoria.development/cache/OCTORIA521411133220960221.png
 LOG  LOGGER :=> get base64 of url:  file:///data/user/0/com.octoria.development/cache/OCTORIA521411133220960221.png
 LOG  LOGGER :=> dwnVideo /data/user/0/com.octoria.development/files/video_cache/8.mp4
 LOG  LOGGER :=> renderedAsset file:///data/user/0/com.octoria.development/cache/OCTORIA521411133220960221.png
 LOG  LOGGER :=> resolution 1024
 LOG  LOGGER :=> ext mp4
 LOG  LOGGER :=> renderedAsset file:///data/user/0/com.octoria.development/cache/OCTORIA521411133220960221.png
 LOG  LOGGER :=> Screen is blurred
 LOG  LOGGER :=> url to base64 resolved
 LOG  LOGGER :=> Input #0, mov,mp4,m4a,3gp,3g2,mj2, from '/data/user/0/com.octoria.development/files/video_cache/8.mp4':
 LOG  LOGGER :=>   Metadata:
 LOG  LOGGER :=>     major_brand     :
 LOG  LOGGER :=> isom
 LOG  LOGGER :=>
 LOG  LOGGER :=>     minor_version   :
 LOG  LOGGER :=> 512
 LOG  LOGGER :=>
 LOG  LOGGER :=>     compatible_brands:
 LOG  LOGGER :=> isomiso2avc1mp41
 LOG  LOGGER :=>
 LOG  LOGGER :=>     encoder         :
 LOG  LOGGER :=> Lavf58.24.100
 LOG  LOGGER :=>
 LOG  LOGGER :=>   Duration:
 LOG  LOGGER :=> 00:00:10.08
 LOG  LOGGER :=> , start:
 LOG  LOGGER :=> 0.000000
 LOG  LOGGER :=> , bitrate:
 LOG  LOGGER :=> 211 kb/s
 LOG  LOGGER :=>
 LOG  LOGGER :=>   Stream #0:0
 LOG  LOGGER :=> [0x1]
 LOG  LOGGER :=> (und)
 LOG  LOGGER :=> : Video: h264 (avc1 / 0x31637661), yuv420p(progressive), 1080x1080, 201 kb/s
 LOG  LOGGER :=> ,
 LOG  LOGGER :=> 25 fps,
 LOG  LOGGER :=> 25 tbr,
 LOG  LOGGER :=> 12800 tbn
 LOG  LOGGER :=>  (default)
 LOG  LOGGER :=>
 LOG  LOGGER :=>     Metadata:
 LOG  LOGGER :=>       handler_name    :
 LOG  LOGGER :=> VideoHandler
 LOG  LOGGER :=>
 LOG  LOGGER :=>       vendor_id       :
 LOG  LOGGER :=> [0][0][0][0]
 LOG  LOGGER :=>
 LOG  LOGGER :=>   Stream #0:1
 LOG  LOGGER :=> [0x2]
 LOG  LOGGER :=> (eng)
 LOG  LOGGER :=> : Audio: aac (mp4a / 0x6134706D), 48000 Hz, stereo, fltp, 2 kb/s
 LOG  LOGGER :=>  (default)
 LOG  LOGGER :=>
 LOG  LOGGER :=>     Metadata:
 LOG  LOGGER :=>       handler_name    :
 LOG  LOGGER :=> #Mainconcept MP4 Sound Media Handler
 LOG  LOGGER :=>
 LOG  LOGGER :=>       vendor_id       :
 LOG  LOGGER :=> [0][0][0][0]
 LOG  LOGGER :=>
 LOG  LOGGER :=> Input #1, png_pipe, from 'file:///data/user/0/com.octoria.development/cache/OCTORIA521411133220960221.png':
 LOG  LOGGER :=>   Duration:
 LOG  LOGGER :=> N/A
 LOG  LOGGER :=> , bitrate:
 LOG  LOGGER :=> N/A
 LOG  LOGGER :=>
 LOG  LOGGER :=>   Stream #1:0
 LOG  LOGGER :=> : Video: png, rgba(pc), 1024x1024
 LOG  LOGGER :=> ,
 LOG  LOGGER :=> 25 fps,
 LOG  LOGGER :=> 25 tbr,
 LOG  LOGGER :=> 25 tbn
 LOG  LOGGER :=>
 LOG  LOGGER :=> Multiple -c, -codec, -acodec, -vcodec, -scodec or -dcodec options specified for stream 0, only the last option '-c:a aac' will be used.
 LOG  LOGGER :=> Multiple -c, -codec, -acodec, -vcodec, -scodec or -dcodec options specified for stream 1, only the last option '-c:a aac' will be used.
 LOG  LOGGER :=> Stream mapping:
 LOG  LOGGER :=>   Stream #0:0 (h264) -> scale:default
 LOG  LOGGER :=>  (graph 0)
 LOG  LOGGER :=>
 LOG  LOGGER :=>   Stream #1:0 (png) -> overlay
 LOG  LOGGER :=>  (graph 0)
 LOG  LOGGER :=>
 LOG  LOGGER :=>   Stream #0:1 -> #0:0
 LOG  LOGGER :=>  (aac (native) -> aac (native))
 LOG  LOGGER :=>
 LOG  LOGGER :=>   Stream #0:1 -> #0:1
 LOG  LOGGER :=>  (aac (native) -> aac (native))
 LOG  LOGGER :=>
 LOG  LOGGER :=>   overlay:default
 LOG  LOGGER :=>  (graph 0)
 LOG  LOGGER :=>  -> Stream #0:2 (h264_mediacodec)
 LOG  LOGGER :=> Press [q] to stop, [?] for help
 LOG  LOGGER :=> [h264_mediacodec @ 0xb4000071875eac00] Use 1 as the default MediaFormat i-frame-interval, please set gop_size properly (>= fps)
 LOG  LOGGER :=> [amediacodec @ 0xb400006ba7eef400] android.media.MediaCodec$CodecException: Error 0xffffffc3
 LOG  LOGGER :=> [h264_mediacodec @ 0xb4000071875eac00] MediaCodec configure failed, Generic error in an external library
 LOG  LOGGER :=> [vost#0:2/h264_mediacodec @ 0xb4000070191ed100] Error initializing output stream: Error while opening encoder for output stream #0:2 - maybe incorrect parameters such as bit_rate, rate, width or height
 LOG  LOGGER :=> [aac @ 0xb4000071877cb800] Qavg: 65536.000
 LOG  LOGGER :=> [aac @ 0xb4000071877cb800] 2 frames left in the queue on closing
 LOG  LOGGER :=> [aac @ 0xb4000071877cc800] Qavg: 65536.000
 LOG  LOGGER :=> [aac @ 0xb4000071877cc800] 2 frames left in the queue on closing
 LOG  LOGGER :=> Conversion failed!
 ERROR  LOGGER :=> FFmpeg command failed: -i /data/user/0/com.octoria.development/files/video_cache/8.mp4 -i file:///data/user/0/com.octoria.development/cache/OCTORIA521411133220960221.png -filter_complex "[0:v]scale=1024:1024 [video]; [video][1:v]overlay=0:0 [output]" -map 0:a -c:a copy -map 0:a -strict -2 -c:a aac -map "[output]" -q:v 1 /data/user/0/com.octoria.development/files/OCTORIA.mp4
 ERROR  LOGGER :=> Logs: Input #0, mov,mp4,m4a,3gp,3g2,mj2, from '/data/user/0/com.octoria.development/files/video_cache/8.mp4':
  Metadata:
    major_brand     : isom
    minor_version   : 512
    compatible_brands: isomiso2avc1mp41
    encoder         : Lavf58.24.100
  Duration: 00:00:10.08, start: 0.000000, bitrate: 211 kb/s
  Stream #0:0[0x1](und): Video: h264 (avc1 / 0x31637661), yuv420p(progressive), 1080x1080, 201 kb/s, 25 fps, 25 tbr, 12800 tbn (default)
    Metadata:
      handler_name    : VideoHandler
      vendor_id       : [0][0][0][0]
  Stream #0:1[0x2](eng): Audio: aac (mp4a / 0x6134706D), 48000 Hz, stereo, fltp, 2 kb/s (default)
    Metadata:
      handler_name    : #Mainconcept MP4 Sound Media Handler
      vendor_id       : [0][0][0][0]
Input #1, png_pipe, from 'file:///data/user/0/com.octoria.development/cache/OCTORIA521411133220960221.png':
  Duration: N/A, bitrate: N/A
  Stream #1:0: Video: png, rgba(pc), 1024x1024, 25 fps, 25 tbr, 25 tbn
Multiple -c, -codec, -acodec, -vcodec, -scodec or -dcodec options specified for stream 0, only the last option '-c:a aac' will be used.
Multiple -c, -codec, -acodec, -vcodec, -scodec or -dcodec options specified for stream 1, only the last option '-c:a aac' will be used.
Stream mapping:
  Stream #0:0 (h264) -> scale:default (graph 0)
  Stream #1:0 (png) -> overlay (graph 0)
  Stream #0:1 -> #0:0 (aac (native) -> aac (native))
  Stream #0:1 -> #0:1 (aac (native) -> aac (native))
  overlay:default (graph 0) -> Stream #0:2 (h264_mediacodec)
Press [q] to stop, [?] for help
[h264_mediacodec @ 0xb4000071875eac00] Use 1 as the default MediaFormat i-frame-interval, please set gop_size properly (>= fps)
[amediacodec @ 0xb400006ba7eef400] android.media.MediaCodec$CodecException: Error 0xffffffc3
[h264_mediacodec @ 0xb4000071875eac00] MediaCodec configure failed, Generic error in an external library
[vost#0:2/h264_mediacodec @ 0xb4000070191ed100] Error initializing output stream: Error while opening encoder for output stream #0:2 - maybe incorrect parameters such as bit_rate, rate, width or height
[aac @ 0xb4000071877cb800] Qavg: 65536.000
[aac @ 0xb4000071877cb800] 2 frames left in the queue on closing
[aac @ 0xb4000071877cc800] Qavg: 65536.000
[aac @ 0xb4000071877cc800] 2 frames left in the queue on closing
Conversion failed!